#!OML:ASF I:\Actors\actors\Patient Classification 2\Patient 1\Session 1\actor1.ASF
:FULLY-SPECIFIED
:DEGREES
767
root -0.547653 18.6339 5.77882 -1.38871 -4.40634 -0.452901
lowerback 4.74331 1.63055 -1.56975
upperback -2.21905 2.09681 0.542146
thorax -5.03588 1.10025 1.25121
lowerneck -10.0652 -1.92976 -1.06306
upperneck 18.9302 -2.52065 0.229053
head 7.49022 -1.26152 0.0152707
rclavicle 2.40871e-015 -6.95746e-015
rhumerus -52.4482 -11.5035 -78.5948
rradius 41.3521
rwrist 13.2381
rhand -7.7574 319.693
rfingers 7.12502
rthumb 18.1423 -69.4805
lclavicle 2.40871e-015 -6.95746e-015
lhumerus -46.2699 7.17175 86.307
lradius 37.8413
lwrist 3.39349
lhand -18.5976 -29.2024
lfingers 7.12502
lthumb 7.6936 0.637627
rfemur 9.25322 14.2784 14.9861
rtibia -3.97569e-014
rfoot -21.1673 -17.325
rtoes -9.05686
lfemur 0.675151 -6.15511 -14.8608
ltibia 20.4439
lfoot -23.1209 14.5226
ltoes -55.6436
768
root -0.550307 18.6337 5.77326 -1.41095 -4.36299 -0.498787
lowerback 4.78429 1.631 -1.52507
upperback -2.20431 2.09972 0.538487
thorax -5.04205 1.10005 1.22121
lowerneck -10.0077 -1.939 -1.04439
upperneck 18.8635 -2.54343 0.262501
head 7.45839 -1.26825 0.0219664
rclavicle 1.12733e-014 8.12532e-015
rhumerus -52.4832 -11.3249 -78.8736
rradius 41.4116
rwrist 13.1356
rhand -8.04869 319.885
rfingers 7.12502
rthumb 17.862 -69.3145
lclavicle 1.12733e-014 8.12532e-015
lhumerus -46.2998 6.92582 86.4193
lradius 37.7967
lwrist 3.08905
lhand -18.4583 -29.2724
lfingers 7.12502
lthumb 7.82798 0.562638
rfemur 9.26789 14.2361 15.0497
rtibia 1.27222e-014
rfoot -21.1492 -17.3695
rtoes -9.2874
lfemur 0.688703 -6.17894 -14.7921
ltibia 20.4139
lfoot -23.0949 14.4687
ltoes -55.558
769
root -0.552765 18.6331 5.76782 -1.4062 -4.31907 -0.543175
lowerback 4.77814 1.62889 -1.48072
upperback -2.19796 2.09987 0.535013
thorax -5.03006 1.09849 1.19305
lowerneck -9.91768 -1.95299 -1.04067
upperneck 18.7865 -2.57143 0.301727
head 7.41778 -1.27817 0.0329583
rclavicle -1.48778e-015 6.55989e-015
rhumerus -52.4749 -11.1986 -79.1019
rradius 41.4271
rwrist 13.1356
rhand -8.17655 320.112
rfingers 7.12502
rthumb 17.739 -69.0989
lclavicle -1.48778e-015 6.55989e-015
lhumerus -46.2064 6.94881 86.3926
lradius 37.6208
lwrist 2.52636
lhand -18.1364 -29.3985
lfingers 7.12502
lthumb 8.13868 0.424747
rfemur 9.2555 14.1911 15.102
rtibia 0
rfoot -21.1428 -17.3937
rtoes -9.32426
lfemur 0.697412 -6.28864 -14.7397
ltibia 20.3832
lfoot -23.142 14.4236
ltoes -55.4309
770
root -0.553825 18.6339 5.76294 -1.36597 -4.27278 -0.507932
lowerback 4.70817 1.61556 -1.527
upperback -2.18977 2.07982 0.533189
thorax -4.98268 1.08976 1.22107
lowerneck -9.86494 -1.95673 -1.07923
upperneck 18.7582 -2.5787 0.345796
head 7.40031 -1.28053 0.0537748
rclavicle 2.19346e-014 -7.00716e-015
rhumerus -52.4003 -11.006 -79.3248
rradius 41.4278
rwrist 13.1644
rhand -8.22161 320.171
rfingers 7.12502
rthumb 17.6956 -69.0438
lclavicle 2.19346e-014 -7.00716e-015
lhumerus -46.071 7.03372 86.3956
lradius 37.4917
lwrist 1.90442
lhand -17.944 -29.5273
lfingers 7.12502
lthumb 8.32434 0.288699
rfemur 9.19948 14.1431 15.046
rtibia 2.70347e-014
rfoot -21.1148 -17.4101
rtoes -9.4572
lfemur 0.648288 -6.30566 -14.7609
ltibia 20.3648
lfoot -23.1139 14.3485
ltoes -55.4636
771
root -0.55502 18.6354 5.7588 -1.33999 -4.22096 -0.48289
lowerback 4.62121 1.60601 -1.57589
upperback -2.16109 2.06544 0.540056
thorax -4.90489 1.08373 1.25981
lowerneck -9.84675 -1.96648 -1.14337
upperneck 18.7763 -2.60112 0.447696
head 7.40548 -1.2865 0.0956029
rclavicle -1.04377e-014 1.26477e-014
rhumerus -52.2918 -10.7886 -79.5658
rradius 41.4615
rwrist 13.0662
rhand -8.45706 320.397
rfingers 7.12502
rthumb 17.469 -68.8378
lclavicle -1.04377e-014 1.26477e-014
lhumerus -45.8953 7.06143 86.4375
lradius 37.4235
lwrist 1.21276
lhand -17.7964 -29.7623
lfingers 7.12502
lthumb 8.46681 0.0479259
rfemur 9.16248 14.0905 15.0052
rtibia 3.18055e-015
rfoot -21.0959 -17.3903
rtoes -9.35114
lfemur 0.590112 -6.24723 -14.7558
ltibia 20.3615
lfoot -23.0261 14.2509
ltoes -55.5952
772
root -0.556794 18.6361 5.75463 -1.34081 -4.1613 -0.517489
lowerback 4.57303 1.61779 -1.52892
upperback -2.13552 2.08443 0.527261
thorax -4.84919 1.09093 1.22035
lowerneck -9.83274 -1.99468 -1.12567
upperneck 18.8105 -2.65163 0.488901
head 7.4149 -1.30561 0.101356
rclavicle -7.78366e-015 -1.44864e-014
rhumerus -52.212 -10.6911 -79.7723
rradius 41.5361
rwrist 12.8847
rhand -8.64877 320.74
rfingers 7.12502
rthumb 17.2845 -68.5111
lclavicle -7.78366e-015 -1.44864e-014
lhumerus -45.7137 6.94465 86.472
lradius 37.3975
lwrist 0.518092
lhand -17.5025 -30.097
lfingers 7.12502
lthumb 8.7505 -0.298411
rfemur 9.16452 14.0305 15.0445
rtibia 9.54166e-015
rfoot -21.1166 -17.3281
rtoes -8.92039
lfemur 0.556484 -6.24421 -14.6949
ltibia 20.3717
lfoot -22.9999 14.1969
ltoes -55.6416
773
root -0.55867 18.6363 5.74968 -1.35474 -4.10277 -0.568538
lowerback 4.55936 1.64129 -1.45765
upperback -2.11365 2.12053 0.52303
thorax -4.81692 1.10617 1.17361
lowerneck -9.83526 -2.02879 -1.12048
upperneck 18.8632 -2.69955 0.487336
head 7.43293 -1.32811 0.0952113
rclavicle -3.03271e-014 -1.1281e-014
rhumerus -52.1461 -10.6671 -79.8862
rradius 41.6408
rwrist 12.7982
rhand -8.63359 320.863
rfingers 7.12502
rthumb 17.2991 -68.3871
lclavicle -3.03271e-014 -1.1281e-014
lhumerus -45.5182 6.85477 86.476
lradius 37.2807
lwrist -0.215141
lhand -17.1199 -30.9229
lfingers 7.12502
lthumb 9.11968 -1.14005
rfemur 9.17937 13.9723 15.1087
rtibia 1.59028e-015
rfoot -21.1271 -17.2847
rtoes -8.77853
lfemur 0.54057 -6.24807 -14.6209
ltibia 20.3802
lfoot -22.9687 14.163
ltoes -55.6433
774
root -0.560127 18.6365 5.74544 -1.35827 -4.06761 -0.542354
lowerback 4.51058 1.66541 -1.49373
upperback -2.08444 2.15141 0.529401
thorax -4.76145 1.12225 1.1996
lowerneck -9.86003 -2.0663 -1.24591
upperneck 18.9484 -2.75284 0.605711
head 7.46939 -1.35128 0.148871
rclavicle -3.30526e-014 1.54804e-014
rhumerus -52.0438 -10.606 -79.9572
rradius 41.7649
rwrist 12.7323
rhand -8.57806 320.911
rfingers 7.12502
rthumb 17.3526 -68.3342
lclavicle -3.30526e-014 1.54804e-014
lhumerus -45.2726 6.94742 86.3874
lradius 36.9479
lwrist -1.02386
lhand -16.7063 -32.7337
lfingers 7.12502
lthumb 9.51877 -2.96871
rfemur 9.17077 13.9385 15.0801
rtibia 7.95139e-015
rfoot -21.1291 -17.2695
rtoes -8.81623
lfemur 0.524597 -6.30657 -14.6503
ltibia 20.377
lfoot -22.9451 14.1871
ltoes -55.634
775
root -0.56048 18.6367 5.74251 -1.35084 -4.05013 -0.462661
lowerback 4.43329 1.68089 -1.58066
upperback -2.06269 2.16708 0.515871
thorax -4.69829 1.13201 1.23557
lowerneck -9.86877 -2.08792 -1.39415
upperneck 19.0278 -2.79203 0.782364
head 7.50226 -1.36409 0.226902
rclavicle -1.31136e-014 1.6524e-014
rhumerus -51.9377 -10.5076 -80.0592
rradius 41.9095
rwrist 12.614
rhand -8.60513 321.045
rfingers 7.12502
rthumb 17.3265 -68.2026
lclavicle -1.31136e-014 1.6524e-014
lhumerus -45.0295 6.75838 86.5369
lradius 37.0297
lwrist -1.4097
lhand -16.5455 -33.1646
lfingers 7.12502
lthumb 9.67392 -3.40679
rfemur 9.14709 13.9229 14.9814
rtibia -1.11319e-014
rfoot -21.1432 -17.2621
rtoes -8.79327
lfemur 0.50889 -6.42488 -14.758
ltibia 20.3627
lfoot -22.9667 14.2612
ltoes -55.5974
